<svg width="33" height="33" viewBox="0 0 33 33" fill="none" xmlns="http://www.w3.org/2000/svg">
<path d="M27.3281 12.375C27.3296 10.5399 26.8648 8.73455 25.9771 7.12842C25.0895 5.5223 23.8082 4.16811 22.2536 3.19302C20.699 2.21793 18.9221 1.65393 17.0898 1.55398C15.2574 1.45403 13.4297 1.82141 11.7783 2.62162C10.1268 3.42184 8.70587 4.62863 7.6488 6.12868C6.59173 7.62873 5.93324 9.37282 5.73515 11.1972C5.53706 13.0216 5.80588 14.8663 6.51636 16.5583C7.22684 18.2503 8.35568 19.7339 9.79687 20.8699V30.9375C9.79687 31.0743 9.8512 31.2054 9.9479 31.3021C10.0446 31.3988 10.1757 31.4531 10.3125 31.4531C10.3925 31.453 10.4715 31.4345 10.5432 31.399L16.5 28.42L22.458 31.399C22.5366 31.438 22.6239 31.4564 22.7116 31.4523C22.7992 31.4482 22.8844 31.4218 22.959 31.3756C23.0336 31.3294 23.0952 31.2649 23.1379 31.1882C23.1806 31.1116 23.2031 31.0253 23.2031 30.9375V20.8699C24.4884 19.8581 25.5274 18.568 26.2419 17.0965C26.9564 15.6251 27.3278 14.0107 27.3281 12.375ZM22.1719 30.1035L16.7295 27.3823C16.6578 27.3464 16.5788 27.3278 16.4987 27.3278C16.4186 27.3278 16.3396 27.3464 16.268 27.3823L10.8281 30.1035V21.5957C12.533 22.6475 14.4968 23.2045 16.5 23.2045C18.5032 23.2045 20.467 22.6475 22.1719 21.5957V30.1035ZM16.5 22.1719C14.5624 22.1719 12.6682 21.5973 11.0571 20.5208C9.44606 19.4443 8.19037 17.9143 7.44887 16.1241C6.70737 14.334 6.51335 12.3641 6.89137 10.4637C7.26938 8.56333 8.20245 6.81769 9.57256 5.44757C10.9427 4.07746 12.6883 3.14439 14.5887 2.76638C16.4891 2.38837 18.459 2.58238 20.2491 3.32388C22.0392 4.06538 23.5693 5.32107 24.6458 6.93216C25.7223 8.54325 26.2969 10.4374 26.2969 12.375C26.2941 14.9725 25.2611 17.4628 23.4244 19.2994C21.5877 21.1361 19.0975 22.1692 16.5 22.1719ZM16.5 5.67189C15.1742 5.67189 13.8783 6.06502 12.7759 6.80157C11.6736 7.53811 10.8145 8.585 10.3071 9.80984C9.79978 11.0347 9.66703 12.3824 9.92567 13.6827C10.1843 14.983 10.8227 16.1774 11.7602 17.1148C12.6976 18.0523 13.892 18.6907 15.1923 18.9493C16.4926 19.208 17.8403 19.0752 19.0652 18.5679C20.29 18.0605 21.3369 17.2014 22.0734 16.0991C22.81 14.9967 23.2031 13.7008 23.2031 12.375C23.2011 10.5979 22.4942 8.89408 21.2376 7.63745C19.9809 6.38081 18.2771 5.67393 16.5 5.67189ZM16.5 18.0469C15.3782 18.0469 14.2816 17.7142 13.3489 17.091C12.4161 16.4678 11.6892 15.5819 11.2599 14.5455C10.8306 13.5091 10.7183 12.3687 10.9371 11.2685C11.156 10.1682 11.6962 9.15761 12.4894 8.36439C13.2826 7.57116 14.2932 7.03097 15.3935 6.81212C16.4937 6.59327 17.6341 6.70559 18.6705 7.13488C19.7069 7.56417 20.5928 8.29115 21.216 9.22389C21.8392 10.1566 22.1719 11.2532 22.1719 12.375C22.1702 13.8788 21.572 15.3204 20.5087 16.3837C19.4454 17.4471 18.0038 18.0452 16.5 18.0469Z" fill="white"/>
</svg>
