<svg width="181" height="175" viewBox="0 0 181 175" fill="none" xmlns="http://www.w3.org/2000/svg">
<ellipse cx="90.5" cy="87.5" rx="90.5" ry="87.5" fill="#D9D9D9"/>
<path d="M20.484 140.935C20.9964 141.068 21.5407 140.995 21.9991 140.73C22.4574 140.465 22.7928 140.029 22.9325 139.519C27.0534 124.145 43.8011 120.161 53.8114 117.776C56.3199 117.18 58.3003 116.708 59.5886 116.152C70.9911 111.203 74.708 103.243 75.8202 97.4339C75.8864 97.0883 75.8601 96.7314 75.7442 96.3991C75.6283 96.0669 75.4268 95.7711 75.1601 95.5417C69.2228 90.4171 64.2137 82.7242 61.053 73.8751C60.9638 73.6213 60.8235 73.3885 60.6409 73.191C56.4599 68.6465 54.0594 63.842 54.0594 60.0135C54.0594 57.7772 54.9036 56.2771 56.804 55.1449C57.0887 54.9748 57.3266 54.7365 57.4963 54.4516C57.666 54.1667 57.7622 53.8441 57.7762 53.5127C58.6604 33.1344 73.1756 17.0925 90.9796 16.9885L91.4077 17.0165C109.3 17.2645 123.723 33.6504 124.239 54.3168C124.246 54.5993 124.313 54.877 124.436 55.1315C124.559 55.386 124.734 55.6115 124.951 55.793C126.203 56.8531 126.787 58.1973 126.787 60.0215C126.787 63.2259 125.079 67.1663 121.982 71.1108C121.835 71.3006 121.721 71.5144 121.646 71.7429C118.446 81.8881 112.7 90.8451 105.891 96.3258C105.609 96.5536 105.394 96.8535 105.268 97.1936C105.143 97.5338 105.112 97.9016 105.179 98.258C106.291 104.063 110.008 112.02 121.41 116.976C122.759 117.56 124.851 118.016 127.504 118.588C137.414 120.733 153.997 124.329 158.066 139.519C158.135 139.773 158.252 140.01 158.413 140.219C158.573 140.427 158.772 140.602 159 140.733C159.228 140.864 159.479 140.949 159.74 140.983C160 141.017 160.265 140.999 160.519 140.931C160.773 140.863 161.011 140.745 161.219 140.585C161.427 140.425 161.602 140.225 161.733 139.997C161.864 139.77 161.949 139.518 161.983 139.258C162.017 138.997 162 138.732 161.931 138.479C157.23 120.929 138.442 116.86 128.352 114.676C126.011 114.168 123.991 113.732 123.007 113.3C115.565 110.067 110.98 105.143 109.36 98.638C116.269 92.7053 122.05 83.5523 125.355 73.2871C128.864 68.7265 130.792 64.03 130.792 60.0175C130.792 57.3412 129.928 55.1089 128.216 53.3647C127.264 30.9461 111.264 13.292 91.4077 13.008L90.8115 13C71.3152 13.104 55.2477 30.294 53.8434 52.3246C51.3388 54.1648 50.0665 56.7451 50.0665 60.0215C50.0665 64.7541 52.7431 70.4147 57.4282 75.6073C60.6649 84.5004 65.682 92.3133 71.6553 97.7819C70.0429 104.311 65.4539 109.251 57.9963 112.488C57.0321 112.908 55.1116 113.368 52.8871 113.896C42.7209 116.312 23.8047 120.813 19.0677 138.487C18.9309 138.999 19.0032 139.545 19.2688 140.004C19.5344 140.463 19.9715 140.798 20.484 140.935Z" fill="white"/>
</svg>
