<svg width="53" height="52" viewBox="0 0 53 52" fill="none" xmlns="http://www.w3.org/2000/svg">
<ellipse cx="26.5" cy="26" rx="26.5" ry="26" fill="white"/>
<g filter="url(#filter0_d_161_5)">
<path d="M25.2872 14.4332C25.3411 14.4913 25.3836 14.56 25.4122 14.6354C25.4408 14.7108 25.455 14.7914 25.454 14.8727C25.4529 14.9539 25.4366 15.0341 25.4061 15.1087C25.3755 15.1834 25.3313 15.2509 25.2758 15.3076L15.5649 25.2514L40.0176 25.5687C40.1736 25.5707 40.3223 25.6378 40.4311 25.7551C40.5398 25.8724 40.5998 26.0304 40.5976 26.1943C40.5955 26.3582 40.5315 26.5146 40.4197 26.629C40.308 26.7435 40.1575 26.8066 40.0016 26.8046L15.5489 26.4873L24.9985 36.6797C25.0524 36.7378 25.0949 36.8066 25.1234 36.882C25.152 36.9574 25.1662 37.038 25.1652 37.1192C25.1641 37.2003 25.1478 37.2806 25.1173 37.3552C25.0868 37.4298 25.0425 37.4974 24.9872 37.5541C24.9318 37.6108 24.8663 37.6555 24.7946 37.6857C24.7228 37.7158 24.6461 37.7308 24.5688 37.7298C24.4915 37.7288 24.4152 37.7118 24.3443 37.6798C24.2733 37.6478 24.209 37.6014 24.1551 37.5433L13.7151 26.2827C13.6612 26.2246 13.6187 26.1559 13.5901 26.0805C13.5615 26.0051 13.5473 25.9245 13.5484 25.8433C13.5494 25.7621 13.5657 25.6819 13.5963 25.6072C13.6268 25.5326 13.6711 25.465 13.7265 25.4083L24.4551 14.4224C24.5105 14.3657 24.5759 14.3209 24.6477 14.2908C24.7195 14.2606 24.7962 14.2456 24.8735 14.2466C24.9508 14.2476 25.0271 14.2646 25.0981 14.2966C25.1691 14.3286 25.2333 14.375 25.2872 14.4332Z" fill="black"/>
</g>
<defs>
<filter id="filter0_d_161_5" x="4" y="6" width="46.1462" height="48.0376" filterUnits="userSpaceOnUse" color-interpolation-filters="sRGB">
<feFlood flood-opacity="0" result="BackgroundImageFix"/>
<feColorMatrix in="SourceAlpha" type="matrix" values="0 0 0 0 0 0 0 0 0 0 0 0 0 0 0 0 0 0 127 0" result="hardAlpha"/>
<feOffset dy="4"/>
<feGaussianBlur stdDeviation="2"/>
<feComposite in2="hardAlpha" operator="out"/>
<feColorMatrix type="matrix" values="0 0 0 0 0 0 0 0 0 0 0 0 0 0 0 0 0 0 0.25 0"/>
<feBlend mode="normal" in2="BackgroundImageFix" result="effect1_dropShadow_161_5"/>
<feBlend mode="normal" in="SourceGraphic" in2="effect1_dropShadow_161_5" result="shape"/>
</filter>
</defs>
</svg>
