<svg width="38" height="38" viewBox="0 0 38 38" fill="none" xmlns="http://www.w3.org/2000/svg">
<g clip-path="url(#clip0_6_235)">
<path d="M18.9999 34.2316C18.7667 34.2309 18.5403 34.153 18.3561 34.01C12.4872 29.45 8.44439 25.5233 5.6155 21.6494C2.0055 16.6989 1.18216 12.1283 3.16661 8.06442C4.58105 5.16165 8.64494 2.78665 13.3949 4.16942C15.6597 4.82359 17.6356 6.22647 18.9999 8.14887C20.3643 6.22647 22.3402 4.82359 24.6049 4.16942C29.3444 2.80776 33.4188 5.16165 34.8333 8.06442C36.8177 12.1283 35.9944 16.6989 32.3844 21.6494C29.5555 25.5233 25.5127 29.45 19.6438 34.01C19.4596 34.153 19.2332 34.2309 18.9999 34.2316ZM10.6927 5.88998C9.56249 5.84599 8.44161 6.11064 7.45042 6.65552C6.45922 7.2004 5.63513 8.00493 5.06661 8.98276C3.4305 12.3394 4.16939 16.0761 7.3255 20.3933C10.6796 24.7196 14.6072 28.569 18.9999 31.8355C23.392 28.5723 27.3195 24.7264 30.6744 20.4039C33.841 16.0761 34.5694 12.3394 32.9333 8.99331C31.8777 6.8822 28.711 5.20387 25.1855 6.19609C24.055 6.53017 23.0071 7.09724 22.109 7.86078C21.2109 8.62433 20.4826 9.56744 19.9711 10.6294C19.8915 10.823 19.7562 10.9886 19.5824 11.1051C19.4085 11.2217 19.204 11.2839 18.9947 11.2839C18.7854 11.2839 18.5808 11.2217 18.4069 11.1051C18.2331 10.9886 18.0978 10.823 18.0183 10.6294C17.5105 9.56478 16.7835 8.61947 15.8849 7.85544C14.9862 7.09142 13.9363 6.52595 12.8038 6.19609C12.1177 5.9968 11.4072 5.89378 10.6927 5.88998Z" fill="black"/>
</g>
<defs>
<clipPath id="clip0_6_235">
<rect width="38" height="38" fill="white"/>
</clipPath>
</defs>
</svg>
