<svg width="27" height="27" viewBox="0 0 27 27" fill="none" xmlns="http://www.w3.org/2000/svg">
<path d="M23.2854 17.0997L18.3052 14.8711C18.1121 14.7875 17.9013 14.7534 17.6917 14.7718C17.4821 14.7903 17.2805 14.8606 17.1049 14.9766C17.0909 14.9855 17.0775 14.9953 17.0649 15.0061L14.4492 17.2357C14.391 17.2712 14.325 17.2918 14.2569 17.2957C14.1888 17.2995 14.1208 17.2865 14.059 17.2579C12.3462 16.431 10.5733 14.6718 9.74638 12.979C9.71713 12.9176 9.70355 12.8499 9.70687 12.782C9.71018 12.7141 9.73028 12.6481 9.76536 12.5898L12.0013 9.93094C12.0118 9.91829 12.0213 9.90457 12.0308 9.89086C12.1464 9.71558 12.2166 9.51429 12.235 9.30513C12.2534 9.09597 12.2195 8.88552 12.1363 8.69274L9.90353 3.72094C9.79574 3.46913 9.60916 3.25909 9.37182 3.12235C9.13448 2.98561 8.85919 2.92956 8.58728 2.96262C7.26003 3.13762 6.04186 3.78977 5.16031 4.79729C4.27876 5.8048 3.79411 7.09877 3.79689 8.4375C3.79689 16.5797 10.4203 23.2031 18.5625 23.2031C19.9012 23.2059 21.1952 22.7213 22.2027 21.8397C23.2102 20.9582 23.8624 19.74 24.0374 18.4127C24.0702 18.1421 24.0147 17.868 23.8792 17.6314C23.7437 17.3948 23.5355 17.2083 23.2854 17.0997ZM23.2031 18.3073C23.0542 19.4313 22.501 20.4626 21.6469 21.2084C20.7928 21.9541 19.6964 22.3633 18.5625 22.3594C10.8865 22.3594 4.64064 16.1135 4.64064 8.4375C4.63671 7.30366 5.04588 6.2072 5.79165 5.35312C6.53741 4.49904 7.56872 3.94581 8.69275 3.79688C8.70961 3.79587 8.72651 3.79587 8.74337 3.79688C8.8266 3.79759 8.90776 3.8229 8.97663 3.86963C9.04551 3.91636 9.09902 3.98242 9.13044 4.0595L11.3569 9.03129C11.3829 9.09206 11.3942 9.15808 11.39 9.22403C11.3858 9.28998 11.3661 9.35402 11.3326 9.41098L9.09775 12.0688C9.0872 12.0825 9.07665 12.0952 9.06716 12.1099C8.94809 12.292 8.87797 12.5017 8.86356 12.7188C8.84915 12.9358 8.89094 13.153 8.98489 13.3492C9.90142 15.2255 11.7914 17.1018 13.6888 18.0183C13.8864 18.1116 14.1047 18.1522 14.3226 18.1362C14.5405 18.1201 14.7506 18.0479 14.9323 17.9265L14.9713 17.897L17.5901 15.6695C17.6461 15.6353 17.7095 15.6148 17.7749 15.6099C17.8404 15.6049 17.9061 15.6156 17.9666 15.641L22.9458 17.8727C23.0298 17.9077 23.1003 17.9689 23.1467 18.0472C23.193 18.1256 23.2129 18.2168 23.2031 18.3073Z" fill="white"/>
</svg>
