<svg width="191" height="26" viewBox="0 0 191 26" fill="none" xmlns="http://www.w3.org/2000/svg">
<path d="M135.587 18.2271L139 16.1688L142.412 18.2542L141.519 14.3542L144.525 11.7542L140.571 11.4021L139 7.71877L137.429 11.375L133.475 11.7271L136.481 14.3542L135.587 18.2271ZM132.31 22.75L134.071 15.1396L128.167 10.0209L135.967 9.34377L139 2.16669L142.033 9.34377L149.833 10.0209L143.929 15.1396L145.689 22.75L139 18.7146L132.31 22.75Z" fill="#8B7D00"/>
<path d="M174.587 18.2271L178 16.1688L181.412 18.2542L180.519 14.3542L183.525 11.7542L179.571 11.4021L178 7.71877L176.429 11.375L172.475 11.7271L175.481 14.3542L174.587 18.2271ZM171.31 22.75L173.071 15.1396L167.167 10.0209L174.967 9.34377L178 2.16669L181.033 9.34377L188.833 10.0209L182.929 15.1396L184.689 22.75L178 18.7146L171.31 22.75Z" fill="#8B7D00"/>
<path d="M50.0679 22.75L51.7606 15.1396L46.0835 10.0209L53.5835 9.34377L56.5002 2.16669L59.4168 9.34377L66.9168 10.0209L61.2397 15.1396L62.9325 22.75L56.5002 18.7146L50.0679 22.75Z" fill="#8B7D00"/>
<path d="M93.0679 22.75L94.7606 15.1396L89.0835 10.0209L96.5835 9.34377L99.5002 2.16669L102.417 9.34377L109.917 10.0209L104.24 15.1396L105.932 22.75L99.5002 18.7146L93.0679 22.75Z" fill="#8B7D00"/>
<path d="M6.31025 22.75L8.07067 15.1396L2.1665 10.0209L9.9665 9.34377L12.9998 2.16669L16.0332 9.34377L23.8332 10.0209L17.929 15.1396L19.6894 22.75L12.9998 18.7146L6.31025 22.75Z" fill="#8B7D00"/>
</svg>
