<svg width="37" height="43" viewBox="0 0 37 43" fill="none" xmlns="http://www.w3.org/2000/svg">
<g clip-path="url(#clip0_19_3)">
<path d="M16.3386 10.0819L6.47527 21.1308L15.8269 32.6161C15.9107 32.751 16.0184 32.8631 16.1429 32.9449C16.2673 33.0267 16.4056 33.0762 16.5483 33.0901C16.691 33.104 16.8348 33.0819 16.9699 33.0254C17.1051 32.9689 17.2285 32.8792 17.3317 32.7625C17.435 32.6458 17.5157 32.5048 17.5684 32.3489C17.6211 32.1931 17.6445 32.0261 17.6371 31.8593C17.6298 31.6924 17.5917 31.5296 17.5256 31.3819C17.4595 31.2342 17.3668 31.105 17.2539 31.0031L10.2578 22.3837L29.3829 22.818C29.648 22.824 29.9051 22.7069 30.0976 22.4924C30.29 22.2779 30.4021 21.9836 30.4091 21.6743C30.4161 21.365 30.3175 21.0659 30.135 20.8429C29.9525 20.6199 29.701 20.4913 29.4358 20.4852L10.3108 20.051L17.6909 11.758C17.8828 11.5426 17.9941 11.2477 18.0002 10.9382C18.0063 10.6287 17.9067 10.3299 17.7234 10.1075C17.5401 9.88515 17.2881 9.75746 17.0228 9.75253C16.7574 9.7476 16.5006 9.86583 16.3086 10.0812L16.3386 10.0819Z" fill="black"/>
</g>
<defs>
<clipPath id="clip0_19_3">
<rect width="42" height="36" fill="white" transform="translate(0 41.9892) rotate(-88.6992)"/>
</clipPath>
</defs>
</svg>
