<svg width="30" height="30" viewBox="0 0 30 30" fill="none" xmlns="http://www.w3.org/2000/svg">
<path d="M26.7188 13.125C26.7188 12.5034 26.4718 11.9073 26.0323 11.4677C25.5927 11.0282 24.9966 10.7812 24.375 10.7812H15.4688V8.87226C16.2496 8.75955 16.9638 8.36926 17.4803 7.77288C17.9968 7.1765 18.2812 6.41397 18.2812 5.625C18.2812 2.59687 15.3832 0.629296 15.2602 0.547265C15.1831 0.495872 15.0926 0.468445 15 0.468445C14.9074 0.468445 14.8169 0.495872 14.7398 0.547265C14.6168 0.629296 11.7188 2.59687 11.7188 5.625C11.7188 6.41397 12.0032 7.1765 12.5197 7.77288C13.0362 8.36926 13.7504 8.75955 14.5312 8.87226V10.7812H5.625C5.0034 10.7812 4.40726 11.0282 3.96772 11.4677C3.52818 11.9073 3.28125 12.5034 3.28125 13.125V15.859C3.28167 16.8341 3.6121 17.7803 4.21875 18.5437V23.4375C4.21875 24.0591 4.46568 24.6552 4.90522 25.0948C5.34476 25.5343 5.9409 25.7812 6.5625 25.7812H23.4375C24.0591 25.7812 24.6552 25.5343 25.0948 25.0948C25.5343 24.6552 25.7812 24.0591 25.7812 23.4375V18.5437C26.3879 17.7803 26.7183 16.8341 26.7188 15.859V13.125ZM12.6562 5.625C12.6562 3.58711 14.3402 2.04726 15 1.52344C15.6598 2.04844 17.3438 3.58828 17.3438 5.625C17.3438 6.2466 17.0968 6.84274 16.6573 7.28228C16.2177 7.72182 15.6216 7.96875 15 7.96875C14.3784 7.96875 13.7823 7.72182 13.3427 7.28228C12.9032 6.84274 12.6562 6.2466 12.6562 5.625ZM23.4375 24.8437H6.5625C6.18954 24.8437 5.83185 24.6956 5.56813 24.4319C5.30441 24.1681 5.15625 23.8105 5.15625 23.4375V19.4215C5.81162 19.8769 6.58513 20.1321 7.38281 20.1562C8.17662 20.1767 8.96017 19.9734 9.64399 19.5698C10.3278 19.1661 10.8843 18.5783 11.25 17.8734C11.6049 18.5621 12.1426 19.1397 12.8041 19.5429C13.4655 19.9462 14.2253 20.1595 15 20.1595C15.7747 20.1595 16.5345 19.9462 17.1959 19.5429C17.8574 19.1397 18.3951 18.5621 18.75 17.8734C19.1067 18.5604 19.6449 19.1364 20.306 19.5388C20.9672 19.9413 21.726 20.1549 22.5 20.1562H22.6172C23.4148 20.1325 24.1883 19.8776 24.8438 19.4227V23.4375C24.8438 23.8105 24.6956 24.1681 24.4319 24.4319C24.1681 24.6956 23.8105 24.8437 23.4375 24.8437ZM25.7812 15.859C25.7812 17.6625 24.3504 19.1695 22.5926 19.2176C22.154 19.23 21.7175 19.1543 21.3087 18.995C20.9 18.8357 20.5273 18.5961 20.2127 18.2903C19.8982 17.9845 19.6481 17.6187 19.4774 17.2146C19.3067 16.8105 19.2187 16.3762 19.2188 15.9375C19.2188 15.8132 19.1694 15.6939 19.0815 15.606C18.9935 15.5181 18.8743 15.4687 18.75 15.4687C18.6257 15.4687 18.5065 15.5181 18.4185 15.606C18.3306 15.6939 18.2812 15.8132 18.2812 15.9375C18.2812 16.8077 17.9355 17.6423 17.3202 18.2577C16.7048 18.873 15.8702 19.2187 15 19.2187C14.1298 19.2187 13.2952 18.873 12.6798 18.2577C12.0645 17.6423 11.7188 16.8077 11.7188 15.9375C11.7188 15.8132 11.6694 15.6939 11.5815 15.606C11.4935 15.5181 11.3743 15.4687 11.25 15.4687C11.1257 15.4687 11.0065 15.5181 10.9185 15.606C10.8306 15.6939 10.7812 15.8132 10.7812 15.9375C10.7814 16.3763 10.6936 16.8107 10.5229 17.2149C10.3523 17.6192 10.1023 17.9851 9.7877 18.291C9.47313 18.597 9.1004 18.8367 8.69155 18.9961C8.2827 19.1554 7.84605 19.2311 7.40742 19.2187C5.64961 19.1707 4.21875 17.6637 4.21875 15.8602V13.125C4.21875 12.752 4.36691 12.3944 4.63063 12.1306C4.89435 11.8669 5.25204 11.7188 5.625 11.7188H24.375C24.748 11.7188 25.1056 11.8669 25.3694 12.1306C25.6331 12.3944 25.7812 12.752 25.7812 13.125V15.859Z" fill="white"/>
</svg>
