<svg width="138" height="138" viewBox="0 0 138 138" fill="none" xmlns="http://www.w3.org/2000/svg">
<circle cx="69" cy="69" r="69" fill="#E8DDD7"/>
<path d="M22.321 72V61.0909H28.8622V62.2628H23.642V65.9489H28.3722V67.1207H23.642V72H22.321ZM33.6776 72.1705C32.9389 72.1705 32.2908 71.9947 31.7333 71.6431C31.1793 71.2915 30.7461 70.7997 30.4336 70.1676C30.1246 69.5355 29.9702 68.7969 29.9702 67.9517C29.9702 67.0994 30.1246 66.3555 30.4336 65.7198C30.7461 65.0842 31.1793 64.5906 31.7333 64.239C32.2908 63.8874 32.9389 63.7116 33.6776 63.7116C34.4162 63.7116 35.0625 63.8874 35.6165 64.239C36.174 64.5906 36.6072 65.0842 36.9162 65.7198C37.2287 66.3555 37.3849 67.0994 37.3849 67.9517C37.3849 68.7969 37.2287 69.5355 36.9162 70.1676C36.6072 70.7997 36.174 71.2915 35.6165 71.6431C35.0625 71.9947 34.4162 72.1705 33.6776 72.1705ZM33.6776 71.0412C34.2386 71.0412 34.7003 70.8974 35.0625 70.6097C35.4247 70.3221 35.6928 69.9439 35.8668 69.4751C36.0408 69.0064 36.1278 68.4986 36.1278 67.9517C36.1278 67.4048 36.0408 66.8952 35.8668 66.4229C35.6928 65.9506 35.4247 65.5689 35.0625 65.2777C34.7003 64.9865 34.2386 64.8409 33.6776 64.8409C33.1165 64.8409 32.6548 64.9865 32.2926 65.2777C31.9304 65.5689 31.6623 65.9506 31.4883 66.4229C31.3143 66.8952 31.2273 67.4048 31.2273 67.9517C31.2273 68.4986 31.3143 69.0064 31.4883 69.4751C31.6623 69.9439 31.9304 70.3221 32.2926 70.6097C32.6548 70.8974 33.1165 71.0412 33.6776 71.0412ZM42.8621 63.8182V64.8835H38.6221V63.8182H42.8621ZM39.8579 61.858H41.115V69.6562C41.115 70.0114 41.1665 70.2777 41.2694 70.4553C41.376 70.6293 41.5109 70.7464 41.6743 70.8068C41.8412 70.8636 42.017 70.892 42.2016 70.892C42.3401 70.892 42.4537 70.8849 42.5425 70.8707C42.6313 70.853 42.7023 70.8388 42.7556 70.8281L43.0113 71.9574C42.926 71.9893 42.8071 72.0213 42.6544 72.0533C42.5017 72.0888 42.3082 72.1065 42.0738 72.1065C41.7187 72.1065 41.3706 72.0302 41.0297 71.8775C40.6924 71.7248 40.4118 71.4922 40.1881 71.1797C39.968 70.8672 39.8579 70.473 39.8579 69.9972V61.858ZM47.9891 72.1705C47.2504 72.1705 46.6024 71.9947 46.0448 71.6431C45.4909 71.2915 45.0576 70.7997 44.7451 70.1676C44.4362 69.5355 44.2817 68.7969 44.2817 67.9517C44.2817 67.0994 44.4362 66.3555 44.7451 65.7198C45.0576 65.0842 45.4909 64.5906 46.0448 64.239C46.6024 63.8874 47.2504 63.7116 47.9891 63.7116C48.7277 63.7116 49.374 63.8874 49.928 64.239C50.4855 64.5906 50.9188 65.0842 51.2277 65.7198C51.5402 66.3555 51.6965 67.0994 51.6965 67.9517C51.6965 68.7969 51.5402 69.5355 51.2277 70.1676C50.9188 70.7997 50.4855 71.2915 49.928 71.6431C49.374 71.9947 48.7277 72.1705 47.9891 72.1705ZM47.9891 71.0412C48.5502 71.0412 49.0118 70.8974 49.374 70.6097C49.7362 70.3221 50.0044 69.9439 50.1784 69.4751C50.3524 69.0064 50.4394 68.4986 50.4394 67.9517C50.4394 67.4048 50.3524 66.8952 50.1784 66.4229C50.0044 65.9506 49.7362 65.5689 49.374 65.2777C49.0118 64.9865 48.5502 64.8409 47.9891 64.8409C47.428 64.8409 46.9664 64.9865 46.6041 65.2777C46.2419 65.5689 45.9738 65.9506 45.7998 66.4229C45.6258 66.8952 45.5388 67.4048 45.5388 67.9517C45.5388 68.4986 45.6258 69.0064 45.7998 69.4751C45.9738 69.9439 46.2419 70.3221 46.6041 70.6097C46.9664 70.8974 47.428 71.0412 47.9891 71.0412ZM60.9237 72.1705C60.2418 72.1705 59.6399 71.9982 59.1179 71.6538C58.5959 71.3058 58.1875 70.8157 57.8928 70.1836C57.598 69.5479 57.4506 68.7969 57.4506 67.9304C57.4506 67.071 57.598 66.3253 57.8928 65.6932C58.1875 65.0611 58.5977 64.5728 59.1232 64.2283C59.6488 63.8839 60.256 63.7116 60.945 63.7116C61.4776 63.7116 61.8984 63.8004 62.2074 63.978C62.5199 64.152 62.7578 64.3509 62.9212 64.5746C63.0881 64.7947 63.2177 64.9759 63.31 65.1179H63.4165V61.0909H64.6737V72H63.4592V70.7429H63.31C63.2177 70.892 63.0863 71.0803 62.9158 71.3075C62.7454 71.5312 62.5021 71.7319 62.1861 71.9094C61.87 72.0835 61.4492 72.1705 60.9237 72.1705ZM61.0941 71.0412C61.5984 71.0412 62.0245 70.9098 62.3725 70.647C62.7205 70.3807 62.9851 70.0131 63.1662 69.5444C63.3473 69.0721 63.4379 68.527 63.4379 67.9091C63.4379 67.2983 63.3491 66.7638 63.1715 66.3058C62.994 65.8441 62.7312 65.4854 62.3832 65.2298C62.0352 64.9705 61.6055 64.8409 61.0941 64.8409C60.5614 64.8409 60.1175 64.9776 59.7624 65.2511C59.4109 65.521 59.1463 65.8885 58.9688 66.3537C58.7947 66.8153 58.7077 67.3338 58.7077 67.9091C58.7077 68.4915 58.7965 69.0206 58.9741 69.4964C59.1552 69.9687 59.4215 70.3452 59.7731 70.6257C60.1282 70.9027 60.5685 71.0412 61.0941 71.0412ZM70.581 72.1705C69.7926 72.1705 69.1126 71.9964 68.5408 71.6484C67.9727 71.2969 67.5341 70.8068 67.2251 70.1783C66.9197 69.5462 66.767 68.8111 66.767 67.973C66.767 67.1349 66.9197 66.3963 67.2251 65.7571C67.5341 65.1143 67.9638 64.6136 68.5142 64.255C69.0682 63.8928 69.7145 63.7116 70.4531 63.7116C70.8793 63.7116 71.3001 63.7827 71.7156 63.9247C72.131 64.0668 72.5092 64.2976 72.8501 64.6172C73.1911 64.9332 73.4627 65.3523 73.6651 65.8743C73.8675 66.3963 73.9688 67.0391 73.9688 67.8026V68.3352H67.6619V67.2486H72.6903C72.6903 66.7869 72.598 66.375 72.4134 66.0128C72.2322 65.6506 71.973 65.3647 71.6357 65.1552C71.3018 64.9457 70.9077 64.8409 70.4531 64.8409C69.9524 64.8409 69.5192 64.9652 69.1534 65.2138C68.7912 65.4588 68.5124 65.7784 68.3171 66.1726C68.1218 66.5668 68.0241 66.9893 68.0241 67.4403V68.1648C68.0241 68.7827 68.1307 69.3065 68.3438 69.7362C68.5604 70.1623 68.8604 70.4872 69.244 70.7109C69.6275 70.9311 70.0732 71.0412 70.581 71.0412C70.9112 71.0412 71.2095 70.995 71.4759 70.9027C71.7457 70.8068 71.9783 70.6648 72.1737 70.4766C72.369 70.2848 72.5199 70.0469 72.6264 69.7628L73.8409 70.1037C73.7131 70.5156 73.4982 70.8778 73.1964 71.1903C72.8945 71.4993 72.5217 71.7408 72.0778 71.9148C71.6339 72.0852 71.1349 72.1705 70.581 72.1705ZM80.2702 72V61.0909H83.9563C84.8121 61.0909 85.5117 61.2454 86.055 61.5543C86.6019 61.8597 87.0067 62.2734 87.2695 62.7955C87.5323 63.3175 87.6637 63.8999 87.6637 64.5426C87.6637 65.1854 87.5323 65.7695 87.2695 66.2951C87.0103 66.8207 86.609 67.2397 86.0657 67.5522C85.5224 67.8612 84.8263 68.0156 83.9776 68.0156H81.3356V66.8438H83.935C84.521 66.8438 84.9915 66.7425 85.3466 66.5401C85.7017 66.3377 85.9592 66.0643 86.119 65.7198C86.2823 65.3718 86.364 64.9794 86.364 64.5426C86.364 64.1058 86.2823 63.7152 86.119 63.3707C85.9592 63.0263 85.6999 62.7564 85.3413 62.5611C84.9826 62.3622 84.5067 62.2628 83.9137 62.2628H81.5913V72H80.2702ZM92.9638 72.1705C92.1754 72.1705 91.4954 71.9964 90.9237 71.6484C90.3555 71.2969 89.9169 70.8068 89.608 70.1783C89.3026 69.5462 89.1499 68.8111 89.1499 67.973C89.1499 67.1349 89.3026 66.3963 89.608 65.7571C89.9169 65.1143 90.3466 64.6136 90.897 64.255C91.451 63.8928 92.0973 63.7116 92.8359 63.7116C93.2621 63.7116 93.6829 63.7827 94.0984 63.9247C94.5138 64.0668 94.892 64.2976 95.233 64.6172C95.5739 64.9332 95.8455 65.3523 96.0479 65.8743C96.2504 66.3963 96.3516 67.0391 96.3516 67.8026V68.3352H90.0447V67.2486H95.0732C95.0732 66.7869 94.9808 66.375 94.7962 66.0128C94.6151 65.6506 94.3558 65.3647 94.0185 65.1552C93.6847 64.9457 93.2905 64.8409 92.8359 64.8409C92.3352 64.8409 91.902 64.9652 91.5362 65.2138C91.174 65.4588 90.8952 65.7784 90.6999 66.1726C90.5046 66.5668 90.407 66.9893 90.407 67.4403V68.1648C90.407 68.7827 90.5135 69.3065 90.7266 69.7362C90.9432 70.1623 91.2433 70.4872 91.6268 70.7109C92.0103 70.9311 92.456 71.0412 92.9638 71.0412C93.294 71.0412 93.5923 70.995 93.8587 70.9027C94.1286 70.8068 94.3612 70.6648 94.5565 70.4766C94.7518 70.2848 94.9027 70.0469 95.0092 69.7628L96.2237 70.1037C96.0959 70.5156 95.881 70.8778 95.5792 71.1903C95.2773 71.4993 94.9045 71.7408 94.4606 71.9148C94.0167 72.0852 93.5178 72.1705 92.9638 72.1705ZM98.2638 72V63.8182H99.4783V65.054H99.5636C99.7127 64.6491 99.9826 64.3207 100.373 64.0685C100.764 63.8164 101.204 63.6903 101.694 63.6903C101.787 63.6903 101.902 63.6921 102.04 63.6957C102.179 63.6992 102.284 63.7045 102.355 63.7116V64.9901C102.312 64.9794 102.214 64.9634 102.062 64.9421C101.913 64.9173 101.755 64.9048 101.588 64.9048C101.19 64.9048 100.835 64.9883 100.522 65.1552C100.213 65.3185 99.9684 65.5458 99.7873 65.837C99.6097 66.1246 99.521 66.4531 99.521 66.8224V72H98.2638ZM108.001 63.8182V64.8835H103.591V63.8182H108.001ZM104.912 72V62.6889C104.912 62.2202 105.022 61.8295 105.242 61.517C105.462 61.2045 105.748 60.9702 106.099 60.8139C106.451 60.6577 106.822 60.5795 107.213 60.5795C107.522 60.5795 107.774 60.6044 107.969 60.6541C108.164 60.7038 108.31 60.75 108.406 60.7926L108.044 61.8793C107.98 61.858 107.891 61.8313 107.777 61.7994C107.667 61.7674 107.522 61.7514 107.341 61.7514C106.925 61.7514 106.625 61.8562 106.44 62.0657C106.259 62.2752 106.169 62.5824 106.169 62.9872V72H104.912ZM109.763 72V63.8182H111.02V72H109.763ZM110.402 62.4545C110.157 62.4545 109.946 62.3711 109.768 62.2042C109.594 62.0373 109.507 61.8366 109.507 61.6023C109.507 61.3679 109.594 61.1673 109.768 61.0004C109.946 60.8335 110.157 60.75 110.402 60.75C110.647 60.75 110.857 60.8335 111.031 61.0004C111.208 61.1673 111.297 61.3679 111.297 61.6023C111.297 61.8366 111.208 62.0373 111.031 62.2042C110.857 62.3711 110.647 62.4545 110.402 62.4545ZM114.58 61.0909V72H113.322V61.0909H114.58Z" fill="#306C83"/>
</svg>
